<?xml version="1.0" encoding="UTF-8" standalone="no"?>
<svg xmlns="http://www.w3.org/2000/svg" viewBox="0 0 64.000000 64.000000">
  <g transform="matrix(0.064,0,0,-0.064,0,64)" style="stroke:none">
    <path d="M 0,0 H 1000 V 1000 H 0 Z" style="fill:#ffffff"/>
    <path d="M 0,500 V 0 h 500 500 v 500 500 H 500 0 Z m 420,350 c 0,-5 -4,-10 -9,-10 -24,0 -122,-106 -148,-158 -24,-50 -28,-69 -28,-147 0,-74 4,-98 22,-131 76,-142 288,-178 395,-66 58,60 73,97 72,182 -1,74 -1,75 13,40 8,-19 15,-65 15,-103 C 752,268 579,120 394,150 279,169 162,265 121,375 c -25,67 -28,172 -6,236 33,96 145,203 245,234 56,17 60,17 60,5 z M 693,822 C 768,789 850,702 879,625 904,558 907,454 885,389 851,291 740,185 636,155 c -52,-16 -75,-11 -41,8 45,25 117,103 142,156 24,48 28,68 28,146 0,74 -4,98 -22,131 -76,142 -288,178 -395,66 -58,-60 -73,-97 -72,-182 1,-74 1,-75 -13,-40 -8,19 -15,65 -15,103 0,182 163,330 342,310 25,-3 71,-17 103,-31 z M 560,605 c 35,-18 60,-62 60,-105 0,-92 -96,-148 -180,-105 -55,29 -77,109 -44,164 34,57 105,77 164,46 z"
       style="fill:#ed7203"/>
  </g>
</svg>
